<svg width="24" height="24" viewBox="0 0 24 24" fill="none" xmlns="http://www.w3.org/2000/svg">
<path d="M1.5 12C1.5 6.20101 6.20101 1.5 12 1.5C14.7848 1.5 17.4555 2.60625 19.4246 4.57538C21.3938 6.54451 22.5 9.21523 22.5 12C22.5 12.4258 22.4747 12.8457 22.4254 13.2583C22.0136 12.7806 21.5335 12.3634 21.0003 12.022C21.0054 10.9315 20.8122 9.82972 20.4076 8.7704C19.0761 5.28449 15.7315 2.9818 12 2.9818C8.26846 2.9818 4.92395 5.28449 3.59245 8.7704C2.26095 12.2563 3.21867 16.2023 6 18.69V17.25C6.0008 17.1823 6.01089 17.115 6.03 17.05C6.28 15.055 8.185 13.5 10.5 13.5H12.3762C12.0203 13.9552 11.7237 14.4591 11.4982 15H10.5C10.3175 15.0011 10.1353 15.0161 9.955 15.045C8.56 15.26 7.5 16.275 7.5 17.5V19.78C8.89622 20.5952 10.4586 21.001 12.0202 20.9975C12.362 21.5318 12.7797 22.0129 13.2583 22.4254C12.8457 22.4747 12.4258 22.5 12 22.5C6.20101 22.5 1.5 17.799 1.5 12Z" fill="white"/>
<path fill-rule="evenodd" clip-rule="evenodd" d="M8 8.5C8 6.29086 9.79086 4.5 12 4.5C13.0609 4.5 14.0783 4.92143 14.8284 5.67157C15.5786 6.42172 16 7.43913 16 8.5C16 10.7091 14.2091 12.5 12 12.5C9.79086 12.5 8 10.7091 8 8.5ZM9.5 8.5C9.5 9.88071 10.6193 11 12 11C13.3807 11 14.5 9.88071 14.5 8.5C14.5 7.11929 13.3807 6 12 6C10.6193 6 9.5 7.11929 9.5 8.5Z" fill="white"/>
<path fill-rule="evenodd" clip-rule="evenodd" d="M17.5044 22.5044C20.2658 22.5044 22.5044 20.2658 22.5044 17.5044C22.5044 14.743 20.2658 12.5044 17.5044 12.5044C14.743 12.5044 12.5044 14.743 12.5044 17.5044C12.5044 20.2658 14.743 22.5044 17.5044 22.5044ZM19.5347 15.4741C19.8276 15.767 19.8276 16.2418 19.5347 16.5347L18.5651 17.5044L19.5347 18.4741C19.8276 18.767 19.8276 19.2418 19.5347 19.5347C19.2418 19.8276 18.767 19.8276 18.4741 19.5347L17.5044 18.5651L16.5347 19.5347C16.2418 19.8276 15.767 19.8276 15.4741 19.5347C15.1812 19.2418 15.1812 18.767 15.4741 18.4741L16.4437 17.5044L15.4741 16.5347C15.1812 16.2418 15.1812 15.767 15.4741 15.4741C15.767 15.1812 16.2418 15.1812 16.5347 15.4741L17.5044 16.4437L18.4741 15.4741C18.767 15.1812 19.2418 15.1812 19.5347 15.4741Z" fill="white"/>
</svg>
