<svg width="24" height="24" viewBox="0 0 24 24" fill="none" xmlns="http://www.w3.org/2000/svg">
<path d="M12.5605 2.46833L21.1665 12.0263C21.4435 12.3343 21.4185 12.8083 21.111 13.0858C20.803 13.3628 20.329 13.3378 20.052 13.0303L11.9995 4.08683L3.94847 13.0278C3.67147 13.3358 3.19747 13.3603 2.88947 13.0833C2.58147 12.8063 2.55647 12.3318 2.83347 12.0243L11.44 2.46633C11.4477 2.45745 11.4574 2.4515 11.4669 2.44556C11.4746 2.4408 11.4823 2.43606 11.489 2.42983C11.5013 2.41844 11.5147 2.40925 11.5281 2.39998C11.5359 2.39461 11.5438 2.3892 11.5515 2.38333C11.6095 2.33883 11.67 2.29983 11.7355 2.27483C11.7577 2.26629 11.7806 2.26161 11.8035 2.2569C11.8115 2.25527 11.8195 2.25363 11.8275 2.25183C11.8875 2.23733 11.9475 2.22583 12.0085 2.22583C12.0431 2.22667 12.0773 2.23321 12.1115 2.23974C12.1178 2.24095 12.1241 2.24216 12.1305 2.24333C12.1805 2.25233 12.2305 2.26133 12.2785 2.28033C12.328 2.30033 12.3735 2.33183 12.4185 2.36333C12.4255 2.36813 12.4326 2.37283 12.4397 2.37752C12.4673 2.39579 12.4947 2.41396 12.519 2.43783C12.5247 2.44332 12.5314 2.44735 12.538 2.45139C12.546 2.45619 12.554 2.46101 12.5605 2.46833Z" fill="#333333"/>
<path d="M6.50022 20.2744H17.5002V11.6949L19.0002 13.3609V21.0244C19.0002 21.4379 18.6652 21.7734 18.2517 21.7744H5.75022C5.33572 21.7744 5.00022 21.4389 5.00022 21.0244V13.3614L6.50022 11.6954V20.2744Z" fill="#333333"/>
</svg>
