<svg width="24" height="24" viewBox="0 0 24 24" fill="none" xmlns="http://www.w3.org/2000/svg">
<path fill-rule="evenodd" clip-rule="evenodd" d="M10.0557 20.8916C9.76265 21.1821 9.28865 21.1816 8.99715 20.8896C8.70565 20.5981 8.70515 20.1241 8.99515 19.8316L8.99715 19.8291L9.88165 18.9446L10.9422 20.0051L10.0557 20.8916ZM7.93615 18.7686C7.93565 18.7691 7.93465 18.7696 7.93415 18.7706C7.64165 19.0606 7.16765 19.0601 6.87565 18.7686C6.58415 18.4766 6.58365 18.0026 6.87365 17.7101C6.87465 17.7096 6.87515 17.7086 6.87565 17.7081L7.40665 17.1766L7.76015 16.8236C7.76065 16.8236 7.76065 16.8231 7.76065 16.8231C8.05315 16.5306 8.52865 16.5311 8.82115 16.8231C9.11365 17.1156 9.11365 17.5916 8.82115 17.8841L7.93615 18.7686ZM6.70015 15.7626H6.69965L5.81515 16.6471C5.81415 16.6481 5.81365 16.6481 5.81265 16.6491C5.52015 16.9396 5.04615 16.9391 4.75465 16.6471C4.46265 16.3556 4.46215 15.8816 4.75265 15.5886L5.63915 14.7016L5.91365 14.4276L7.40665 12.9341C7.69915 12.6416 8.17515 12.6416 8.46765 12.9341C8.75965 13.2266 8.75965 13.7021 8.46765 13.9946C8.46715 13.9946 8.46715 13.9951 8.46715 13.9951L6.70015 15.7626ZM17.1297 18.7676C17.3167 18.5806 17.4552 18.3661 17.5622 18.1401C17.6902 17.8711 17.7622 17.5851 17.7772 17.2941C18.0687 17.2791 18.3547 17.2071 18.6231 17.0791C18.8491 16.9716 19.0641 16.8336 19.2507 16.6466C19.4377 16.4596 19.5762 16.2446 19.6837 16.0191C20.0467 15.2556 19.9572 14.3366 19.4132 13.6556L22.4321 10.6371C22.4321 10.6366 22.4327 10.6366 22.4332 10.6361C22.4332 10.6356 22.4332 10.6356 22.4337 10.6351C22.7257 10.3421 22.7257 9.86762 22.4332 9.57512C22.1402 9.28262 21.6651 9.28262 21.3722 9.57512L18.3667 12.5806L12.3567 6.57012L12.5332 6.39362C12.8262 6.10062 12.8262 5.62562 12.5332 5.33262C12.2402 5.04012 11.7657 5.04012 11.4727 5.33262L10.0317 6.77362L9.89765 6.90812L8.99815 7.80662L8.99715 7.80812C8.70465 8.10012 8.22915 8.09962 7.93715 7.80762C7.64515 7.51512 7.64465 7.04012 7.93665 6.74762L9.12465 5.55962L9.17415 5.50962L11.4727 3.21112C11.5347 3.14912 11.6062 3.10362 11.6812 3.06762C11.9597 2.93512 12.3027 2.98112 12.5332 3.21112L14.3012 4.97912C14.5942 5.27212 15.0692 5.27212 15.3617 4.97912L15.8922 4.44912L16.0697 4.27112C16.3572 3.98362 16.3607 3.52212 16.0837 3.22812C16.0787 3.22212 16.0752 3.21612 16.0697 3.21062C16.0642 3.20512 16.0582 3.20162 16.0522 3.19662C15.7582 2.91962 15.2967 2.92312 15.0087 3.21062L14.8312 3.38812L13.5942 2.15062C13.4067 1.96362 13.1932 1.82312 12.9667 1.71762C12.6982 1.59212 12.4112 1.51812 12.1207 1.50312C12.0417 1.49912 11.9642 1.49912 11.8857 1.50312C11.5947 1.51812 11.3082 1.59212 11.0397 1.71762C10.8132 1.82312 10.5992 1.96362 10.4122 2.15062L9.88315 2.67912C9.88265 2.68012 9.88215 2.68062 9.88165 2.68112C9.88165 2.68112 9.88115 2.68112 9.88115 2.68162L9.17415 3.38812L8.64565 2.85962C8.64515 2.85912 8.64465 2.85812 8.64415 2.85762C8.64365 2.85712 8.64315 2.85712 8.64265 2.85662C8.34965 2.56512 7.87615 2.56562 7.58365 2.85762C7.29065 3.15062 7.29065 3.62562 7.58365 3.91862L8.11365 4.44912L6.87565 5.68712C6.18415 6.37862 6.04665 7.40512 6.44365 8.24062C6.55115 8.46612 6.68965 8.68112 6.87665 8.86812C7.06365 9.05512 7.27865 9.19362 7.50415 9.30112C8.33965 9.69862 9.36615 9.56012 10.0577 8.86862C10.0582 8.86862 10.0587 8.86862 10.0587 8.86812L11.2957 7.63112L18.1877 14.5231L18.1922 14.5271C18.2537 14.5891 18.2992 14.6601 18.3342 14.7346C18.4662 15.0126 18.4207 15.3556 18.1902 15.5856C17.9602 15.8156 17.6177 15.8616 17.3392 15.7296C17.2647 15.6941 17.1937 15.6486 17.1322 15.5876L17.1297 15.5856L14.6547 13.1111C14.3617 12.8181 13.8872 12.8181 13.5942 13.1111C13.3012 13.4036 13.3012 13.8786 13.5942 14.1716L16.0692 16.6466C16.0697 16.6471 16.0702 16.6481 16.0707 16.6486C16.1322 16.7106 16.1772 16.7816 16.2127 16.8561C16.3452 17.1346 16.2992 17.4771 16.0692 17.7071C15.8387 17.9371 15.4962 17.9831 15.2177 17.8511C15.1432 17.8156 15.0722 17.7701 15.0107 17.7091C15.0097 17.7081 15.0087 17.7076 15.0082 17.7071L12.5332 15.2321C12.2407 14.9396 11.7657 14.9396 11.4727 15.2321C11.1797 15.5251 11.1797 16.0001 11.4727 16.2931L13.9477 18.7676C13.9482 18.7686 13.9487 18.7696 13.9497 18.7701C14.0107 18.8316 14.0562 18.9026 14.0912 18.9771C14.2237 19.2556 14.1777 19.5981 13.9477 19.8281C13.7172 20.0586 13.3747 20.1046 13.0962 19.9721C13.0217 19.9371 12.9512 19.8916 12.8892 19.8301L10.9427 17.8841L10.5292 17.4711C10.5487 17.1026 10.4692 16.7346 10.3107 16.3946C10.2047 16.1676 10.0697 15.9501 9.88165 15.7626C9.69515 15.5756 9.47965 15.4371 9.25415 15.3296L9.52815 15.0556C9.64965 14.9341 9.75065 14.8001 9.83865 14.6601C10.1982 14.0896 10.2722 13.3946 10.0702 12.7691C9.96465 12.4421 9.78815 12.1331 9.52815 11.8736C9.27015 11.6156 8.96415 11.4431 8.64015 11.3391C8.37415 11.2531 8.09665 11.2111 7.81965 11.2256C7.28365 11.2536 6.75565 11.4641 6.34615 11.8736L5.63915 12.5806L2.28065 9.22262C2.28065 9.22212 2.28065 9.22212 2.28015 9.22162L2.27965 9.22112C1.98665 8.92912 1.51215 8.92912 1.21965 9.22162C0.926651 9.51462 0.926651 9.98962 1.21965 10.2826L4.57815 13.6411L3.69165 14.5281C3.00215 15.2201 2.86365 16.2451 3.26065 17.0801C3.36815 17.3061 3.50715 17.5211 3.69415 17.7081C3.88065 17.8951 4.09565 18.0336 4.32165 18.1406C4.59015 18.2686 4.87615 18.3406 5.16715 18.3556C5.18265 18.6466 5.25465 18.9326 5.38215 19.2011C5.48965 19.4276 5.62815 19.6421 5.81515 19.8291C6.00215 20.0161 6.21715 20.1546 6.44315 20.2621C6.71165 20.3896 6.99765 20.4616 7.28865 20.4771C7.30415 20.7681 7.37565 21.0541 7.50365 21.3226C7.61115 21.5486 7.74965 21.7636 7.93665 21.9506C8.12315 22.1376 8.33815 22.2761 8.56415 22.3836C9.39865 22.7806 10.4242 22.6426 11.1162 21.9526C11.1167 21.9516 11.1177 21.9511 11.1187 21.9506C11.1192 21.9501 11.1197 21.9491 11.1207 21.9481L12.0172 21.0516C12.6982 21.5951 13.6177 21.6846 14.3807 21.3221C14.6062 21.2146 14.8212 21.0761 15.0082 20.8891C15.1952 20.7021 15.3337 20.4871 15.4412 20.2616C15.5692 19.9926 15.6407 19.7066 15.6557 19.4156C15.9472 19.4001 16.2332 19.3281 16.5017 19.2006C16.7277 19.0931 16.9426 18.9546 17.1297 18.7676Z" fill="#333333"/>
</svg>
